<svg width="63" height="63" viewBox="0 0 63 63" fill="none" xmlns="http://www.w3.org/2000/svg">
<g clip-path="url(#clip0)">
<path d="M15.0609 23.3602C15.0609 23.1318 14.9702 22.9127 14.8087 22.7512C14.6471 22.5896 14.428 22.4989 14.1996 22.4989C11.6613 22.5024 9.22806 23.5125 7.43345 25.3075C5.63885 27.1026 4.62942 29.5361 4.62656 32.0744C4.62656 32.1875 4.64884 32.2995 4.69212 32.404C4.73541 32.5085 4.79885 32.6035 4.87883 32.6835C4.95882 32.7634 5.05377 32.8269 5.15827 32.8702C5.26277 32.9135 5.37477 32.9357 5.48788 32.9357C5.601 32.9357 5.713 32.9135 5.8175 32.8702C5.922 32.8269 6.01695 32.7634 6.09694 32.6835C6.17692 32.6035 6.24036 32.5085 6.28365 32.404C6.32693 32.2995 6.34921 32.1875 6.34921 32.0744C6.35156 29.9928 7.17939 27.997 8.65115 26.5249C10.1229 25.0528 12.1184 24.2244 14.2001 24.2216C14.4284 24.2214 14.6474 24.1306 14.8088 23.9691C14.9703 23.8076 15.0609 23.5886 15.0609 23.3602Z" fill="#3282B8"/>
<path d="M22.5481 4.95728C21.2228 4.95884 19.9523 5.48598 19.0152 6.42307C18.0781 7.36016 17.551 8.63068 17.5494 9.95593C17.5494 10.1844 17.6402 10.4035 17.8017 10.565C17.9632 10.7265 18.1823 10.8173 18.4107 10.8173C18.6392 10.8173 18.8583 10.7265 19.0198 10.565C19.1813 10.4035 19.2721 10.1844 19.2721 9.95593C19.2721 9.08702 19.6172 8.25369 20.2317 7.63928C20.8461 7.02486 21.6794 6.67969 22.5483 6.67969C23.4172 6.67969 24.2506 7.02486 24.865 7.63928C25.4794 8.25369 25.8246 9.08702 25.8246 9.95593C25.8246 10.1844 25.9153 10.4035 26.0768 10.565C26.2384 10.7265 26.4574 10.8173 26.6859 10.8173C26.9143 10.8173 27.1334 10.7265 27.2949 10.565C27.4565 10.4035 27.5472 10.1844 27.5472 9.95593C27.5457 8.6306 27.0184 7.36001 26.0812 6.4229C25.144 5.4858 23.8734 4.95871 22.5481 4.95728Z" fill="#3282B8"/>
<path d="M17.6582 17.5494H18.0273C19.1508 17.5506 20.2278 17.9974 21.0222 18.7918C21.8166 19.5862 22.2634 20.6633 22.2646 21.7867V24.571C22.2634 25.6944 21.8166 26.7715 21.0222 27.5659C20.2278 28.3603 19.1508 28.8071 18.0273 28.8082C17.7989 28.8082 17.5798 28.899 17.4183 29.0605C17.2568 29.222 17.166 29.4411 17.166 29.6696C17.166 29.898 17.2568 30.1171 17.4183 30.2786C17.5798 30.4401 17.7989 30.5309 18.0273 30.5309C19.6074 30.5291 21.1223 29.9006 22.2396 28.7833C23.3569 27.666 23.9854 26.1511 23.9872 24.571V21.7867C23.9854 20.2066 23.3569 18.6917 22.2396 17.5744C21.1223 16.4571 19.6074 15.8286 18.0273 15.8268H17.6582C17.4298 15.8268 17.2107 15.9175 17.0492 16.0791C16.8876 16.2406 16.7969 16.4597 16.7969 16.6881C16.7969 16.9165 16.8876 17.1356 17.0492 17.2972C17.2107 17.4587 17.4298 17.5494 17.6582 17.5494Z" fill="#3282B8"/>
<path d="M23.1328 39.2057C23.3613 39.2057 23.5803 39.1149 23.7419 38.9534C23.9034 38.7919 23.9941 38.5728 23.9941 38.3444C23.9941 38.1159 23.9034 37.8968 23.7419 37.7353C23.5803 37.5738 23.3613 37.483 23.1328 37.483H18.2109C16.8897 37.4816 15.623 36.9561 14.6887 36.0218C13.7545 35.0876 13.229 33.8209 13.2275 32.4996C13.2275 32.2712 13.1368 32.0521 12.9753 31.8906C12.8137 31.7291 12.5946 31.6383 12.3662 31.6383C12.1378 31.6383 11.9187 31.7291 11.7572 31.8906C11.5956 32.0521 11.5049 32.2712 11.5049 32.4996C11.507 34.2775 12.2142 35.9821 13.4713 37.2392C14.7285 38.4964 16.433 39.2036 18.2109 39.2057H23.1328Z" fill="#3282B8"/>
<path d="M26.2705 49.4186C24.6394 49.4168 23.0756 48.768 21.9222 47.6146C20.7688 46.4612 20.12 44.8974 20.1182 43.2662C20.1182 43.0378 20.0274 42.8187 19.8659 42.6572C19.7044 42.4957 19.4853 42.4049 19.2568 42.4049C19.0284 42.4049 18.8093 42.4957 18.6478 42.6572C18.4863 42.8187 18.3955 43.0378 18.3955 43.2662C18.3979 45.3541 19.2283 47.3558 20.7046 48.8321C22.181 50.3085 24.1826 51.1389 26.2705 51.1412C26.4989 51.1412 26.718 51.0505 26.8796 50.889C27.0411 50.7274 27.1318 50.5083 27.1318 50.2799C27.1318 50.0515 27.0411 49.8324 26.8796 49.6709C26.718 49.5093 26.4989 49.4186 26.2705 49.4186Z" fill="#3282B8"/>
<path d="M14.0495 47.6256C13.3592 47.5214 12.7383 47.1478 12.3231 46.5865C11.9079 46.0252 11.7322 45.3222 11.8347 44.6316C11.8531 44.519 11.8489 44.4039 11.8225 44.293C11.796 44.182 11.7478 44.0774 11.6806 43.9852C11.6134 43.8931 11.5286 43.8152 11.431 43.7561C11.3335 43.6969 11.2251 43.6578 11.1123 43.6409C10.9995 43.624 10.8845 43.6296 10.7739 43.6575C10.6633 43.6854 10.5593 43.735 10.4681 43.8034C10.3768 43.8718 10.3 43.9577 10.2422 44.056C10.1843 44.1543 10.1466 44.2631 10.1312 44.3762C9.9616 45.5186 10.252 46.6816 10.9388 47.6102C11.6255 48.5388 12.6525 49.1571 13.7945 49.3295C13.8371 49.3357 13.88 49.3388 13.923 49.3389C14.1405 49.3389 14.3498 49.2566 14.5092 49.1086C14.6685 48.9606 14.7659 48.7578 14.7819 48.541C14.7979 48.3241 14.7313 48.1092 14.5955 47.9394C14.4596 47.7697 14.2646 47.6575 14.0495 47.6256Z" fill="#3282B8"/>
<path d="M22.7637 56.7217C21.785 56.7206 20.8467 56.3314 20.1546 55.6393C19.4626 54.9473 19.0733 54.009 19.0723 53.0303C19.0723 52.8018 18.9815 52.5828 18.82 52.4212C18.6585 52.2597 18.4394 52.1689 18.2109 52.1689C17.9825 52.1689 17.7634 52.2597 17.6019 52.4212C17.4404 52.5828 17.3496 52.8018 17.3496 53.0303C17.3512 54.4657 17.9221 55.8419 18.9371 56.8569C19.9521 57.8719 21.3283 58.4428 22.7637 58.4443C22.9921 58.4443 23.2112 58.3536 23.3727 58.1921C23.5343 58.0305 23.625 57.8114 23.625 57.583C23.625 57.3546 23.5343 57.1355 23.3727 56.974C23.2112 56.8124 22.9921 56.7217 22.7637 56.7217Z" fill="#3282B8"/>
<path d="M59.5852 34.6536C58.9791 34.6542 58.3842 34.8173 57.8625 35.1261L46.6899 23.9534C46.5285 23.7919 46.3095 23.701 46.0811 23.7009H32.3613V18.3705H56.2851C56.4946 19.1741 56.9897 19.8739 57.6778 20.3388C58.366 20.8037 59.1999 21.0019 60.0237 20.8963C60.8474 20.7907 61.6044 20.3885 62.153 19.7651C62.7016 19.1417 63.0043 18.3397 63.0043 17.5092C63.0043 16.6787 62.7016 15.8767 62.153 15.2533C61.6044 14.6299 60.8474 14.2277 60.0237 14.1221C59.1999 14.0165 58.366 14.2147 57.6778 14.6796C56.9897 15.1445 56.4946 15.8443 56.2851 16.6479H32.3613V12.7926H46.0811C46.3095 12.7925 46.5285 12.7016 46.6899 12.5401L50.3813 8.84868C51.1194 9.23286 51.9722 9.33489 52.78 9.13567C53.5879 8.93646 54.2955 8.44965 54.7703 7.76637C55.2452 7.08309 55.4547 6.25018 55.3598 5.42354C55.2648 4.59691 54.8718 3.83321 54.2544 3.2754C53.637 2.7176 52.8375 2.40392 52.0055 2.39308C51.1735 2.38224 50.366 2.67499 49.7343 3.21653C49.1026 3.75806 48.6899 4.51126 48.5734 5.33515C48.4569 6.15903 48.6447 6.99712 49.1016 7.69253L45.7242 11.0699H32.3613V9.76759C32.3595 7.23202 31.3763 4.79558 29.6178 2.96889C27.8593 1.14219 25.462 0.0670572 22.9284 -0.0311967C20.3947 -0.129451 17.9213 0.756806 16.0267 2.44183C14.132 4.12686 12.9631 6.47984 12.7649 9.00766C10.7481 9.30401 8.90516 10.3157 7.57245 11.8582C6.23974 13.4006 5.50616 15.3709 5.50561 17.4093C5.50467 18.4446 5.69558 19.471 6.06867 20.4367C4.22229 21.7264 2.70917 23.4369 1.65426 25.4268C0.599349 27.4166 0.0329047 29.6289 0.00169897 31.8809C-0.0295067 34.1329 0.475421 36.3601 1.47479 38.3784C2.47416 40.3968 3.9393 42.1484 5.74925 43.4888C5.46809 44.6372 5.42999 45.8316 5.63741 46.9955C5.84482 48.1595 6.29316 49.2672 6.95369 50.2478C7.61421 51.2283 8.47235 52.06 9.47307 52.6896C10.4738 53.3191 11.595 53.7326 12.7649 53.9035C12.9631 56.4314 14.1321 58.7845 16.0269 60.4695C17.9216 62.1545 20.3951 63.0407 22.9289 62.9423C25.4626 62.8439 27.8599 61.7686 29.6183 59.9417C31.3767 58.1149 32.3598 55.6782 32.3613 53.1426V52.989H41.7867L45.4575 57.654C44.972 58.3327 44.7507 59.1652 44.8349 59.9954C44.9191 60.8256 45.303 61.5967 45.9149 62.1642C46.5267 62.7316 47.3244 63.0566 48.1586 63.0782C48.9928 63.0998 49.8063 62.8166 50.4467 62.2815C51.087 61.7465 51.5104 60.9964 51.6375 60.1716C51.7645 59.3469 51.5866 58.5041 51.1369 57.8011C50.6873 57.0981 49.9968 56.5832 49.1948 56.3527C48.3928 56.1222 47.5342 56.192 46.78 56.549L42.8818 51.5951C42.8013 51.4927 42.6985 51.4099 42.5813 51.353C42.464 51.296 42.3354 51.2664 42.2051 51.2664H32.3613V46.0984H41.4579C41.6674 46.902 42.1625 47.6017 42.8507 48.0666C43.5388 48.5315 44.3728 48.7297 45.1965 48.6242C46.0202 48.5186 46.7772 48.1164 47.3259 47.493C47.8745 46.8695 48.1771 46.0675 48.1771 45.2371C48.1771 44.4066 47.8745 43.6046 47.3259 42.9812C46.7772 42.3577 46.0202 41.9556 45.1965 41.85C44.3728 41.7444 43.5388 41.9426 42.8507 42.4075C42.1625 42.8724 41.6674 43.5721 41.4579 44.3757H32.3613V39.2078H46.8715C47.081 40.0114 47.5761 40.7111 48.2643 41.176C48.9524 41.6409 49.7864 41.8391 50.6101 41.7335C51.4338 41.6279 52.1908 41.2258 52.7394 40.6023C53.2881 39.9789 53.5907 39.1769 53.5907 38.3464C53.5907 37.516 53.2881 36.714 52.7394 36.0905C52.1908 35.4671 51.4338 35.065 50.6101 34.9594C49.7864 34.8538 48.9524 35.052 48.2643 35.5169C47.5761 35.9818 47.081 36.6815 46.8715 37.4851H32.3613V32.3172H37.5386C37.7679 33.1155 38.2801 33.8029 38.9796 34.2508C39.679 34.6987 40.5177 34.8763 41.3387 34.7505C42.1597 34.6247 42.9067 34.204 43.4399 33.5672C43.9731 32.9304 44.256 32.1211 44.2356 31.2908C44.2152 30.4604 43.8929 29.666 43.3291 29.0562C42.7652 28.4463 41.9985 28.0628 41.1723 27.9774C40.3461 27.8921 39.5172 28.1107 38.8405 28.5924C38.1639 29.0741 37.686 29.7859 37.4963 30.5945H32.3613V25.4265H45.7242L56.6434 36.3452C56.2641 36.9944 56.1098 37.7506 56.2046 38.4965C56.2994 39.2423 56.6379 39.936 57.1676 40.4696C57.6972 41.0032 58.3883 41.3469 59.1335 41.4472C59.8786 41.5476 60.636 41.3989 61.2879 41.0244C61.9399 40.6499 62.4498 40.0705 62.7385 39.3763C63.0272 38.6821 63.0785 37.912 62.8844 37.1856C62.6903 36.4593 62.2616 35.8174 61.6651 35.3597C61.0686 34.9021 60.3376 34.6544 59.5857 34.655L59.5852 34.6536ZM59.5852 15.8171C59.9199 15.817 60.2471 15.9161 60.5254 16.102C60.8038 16.2879 61.0207 16.5521 61.1489 16.8613C61.277 17.1705 61.3106 17.5107 61.2454 17.839C61.1801 18.1673 61.019 18.4689 60.7824 18.7056C60.5458 18.9423 60.2443 19.1035 59.916 19.1688C59.5877 19.2341 59.2475 19.2006 58.9383 19.0726C58.629 18.9445 58.3647 18.7276 58.1788 18.4494C57.9928 18.1711 57.8936 17.8439 57.8936 17.5092C57.8939 17.0606 58.0723 16.6305 58.3894 16.3133C58.7066 15.996 59.1366 15.8176 59.5852 15.8171ZM51.9563 4.12713C52.2909 4.12713 52.6179 4.22634 52.8961 4.41222C53.1743 4.5981 53.3911 4.8623 53.5192 5.17141C53.6472 5.48052 53.6807 5.82065 53.6154 6.1488C53.5502 6.47695 53.3891 6.77837 53.1525 7.01495C52.9159 7.25153 52.6145 7.41264 52.2863 7.47792C51.9582 7.54319 51.618 7.50969 51.3089 7.38165C50.9998 7.25362 50.7356 7.03679 50.5497 6.7586C50.3639 6.48041 50.2646 6.15335 50.2646 5.81877C50.2652 5.37028 50.4436 4.94031 50.7607 4.62317C51.0778 4.30604 51.5078 4.12765 51.9563 4.12713ZM49.926 59.6321C49.926 59.9667 49.8268 60.2937 49.6409 60.5719C49.455 60.8501 49.1909 61.0669 48.8817 61.195C48.5726 61.323 48.2325 61.3565 47.9044 61.2912C47.5762 61.2259 47.2748 61.0648 47.0382 60.8283C46.8016 60.5917 46.6405 60.2902 46.5752 59.9621C46.51 59.6339 46.5435 59.2938 46.6715 58.9847C46.7995 58.6756 47.0164 58.4114 47.2945 58.2255C47.5727 58.0396 47.8998 57.9404 48.2344 57.9404C48.6829 57.9409 49.1128 58.1193 49.43 58.4365C49.7471 58.7536 49.9255 59.1836 49.926 59.6321ZM44.7581 43.5439C45.0928 43.5438 45.42 43.643 45.6983 43.8289C45.9767 44.0148 46.1937 44.2791 46.3218 44.5883C46.4499 44.8975 46.4835 45.2378 46.4182 45.5661C46.3529 45.8944 46.1918 46.1959 45.9551 46.4326C45.7184 46.6693 45.4168 46.8305 45.0885 46.8957C44.7603 46.961 44.42 46.9275 44.1108 46.7993C43.8015 46.6712 43.5373 46.4542 43.3514 46.1759C43.1655 45.8975 43.0663 45.5703 43.0664 45.2356C43.0669 44.7871 43.2453 44.3571 43.5625 44.04C43.8796 43.7229 44.3096 43.5445 44.7581 43.5439ZM50.1721 36.6533C50.5068 36.6532 50.8341 36.7524 51.1124 36.9383C51.3908 37.1242 51.6077 37.3885 51.7359 37.6977C51.864 38.0069 51.8975 38.3472 51.8323 38.6755C51.767 39.0038 51.6058 39.3053 51.3691 39.542C51.1325 39.7787 50.8309 39.9398 50.5026 40.0051C50.1743 40.0704 49.834 40.0368 49.5248 39.9087C49.2156 39.7806 48.9513 39.5636 48.7654 39.2853C48.5795 39.0069 48.4804 38.6797 48.4805 38.345C48.481 37.8965 48.6594 37.4665 48.9765 37.1494C49.2937 36.8322 49.7236 36.6538 50.1721 36.6533ZM40.8176 29.6795C41.1523 29.6794 41.4795 29.7786 41.7578 29.9645C42.0362 30.1503 42.2531 30.4146 42.3813 30.7238C42.5094 31.033 42.543 31.3732 42.4778 31.7015C42.4125 32.0298 42.2514 32.3313 42.0148 32.568C41.7782 32.8047 41.4767 32.9659 41.1484 33.0312C40.8201 33.0966 40.4799 33.0631 40.1707 32.935C39.8614 32.807 39.5971 32.5901 39.4112 32.3118C39.2252 32.0335 39.126 31.7064 39.126 31.3717C39.1263 30.9231 39.3047 30.493 39.6218 30.1757C39.939 29.8585 40.369 29.68 40.8176 29.6795ZM30.6387 53.1416C30.6248 55.2765 29.7675 57.3194 28.2539 58.825C26.7402 60.3306 24.6928 61.1769 22.5579 61.1794C20.4229 61.1819 18.3735 60.3405 16.8563 58.8385C15.339 57.3365 14.477 55.2957 14.458 53.1608C14.458 53.147 14.458 53.1323 14.458 53.1209C14.4581 52.9004 14.3735 52.6882 14.2218 52.5281C14.0701 52.3681 13.8627 52.2723 13.6425 52.2606C12.6046 52.207 11.593 51.915 10.6862 51.4073C9.77947 50.8996 9.00187 50.1897 8.41378 49.3329C7.8257 48.476 7.44295 47.4952 7.29522 46.4665C7.1475 45.4378 7.23877 44.3889 7.56197 43.4012C7.61994 43.2234 7.61839 43.0314 7.55755 42.8545C7.49672 42.6776 7.37992 42.5254 7.22482 42.4208C5.49882 41.2574 4.09127 39.6808 3.13036 37.8344C2.16945 35.988 1.6857 33.9306 1.72317 31.8495C1.76065 29.7684 2.31815 27.7297 3.34491 25.9191C4.37168 24.1085 5.83508 22.5836 7.60184 21.4831C7.7826 21.3703 7.91515 21.1946 7.97387 20.9898C8.03259 20.785 8.01333 20.5657 7.91979 20.3742C7.427 19.37 7.19119 18.2592 7.23352 17.1414C7.27585 16.0236 7.59499 14.9338 8.16232 13.9698C8.72965 13.0057 9.52742 12.1976 10.4841 11.6178C11.4407 11.0381 12.5263 10.7049 13.6434 10.6481C13.8637 10.6364 14.071 10.5406 14.2228 10.3806C14.3745 10.2205 14.4591 10.0083 14.459 9.78777C14.459 9.77694 14.459 9.76267 14.459 9.7484C14.4779 7.61354 15.3399 5.5727 16.8571 4.07065C18.3743 2.5686 20.4237 1.72712 22.5586 1.72959C24.6936 1.73205 26.741 2.57827 28.2547 4.08382C29.7684 5.58937 30.6257 7.6322 30.6397 9.7671L30.6387 53.1416ZM59.5852 39.7605C59.2505 39.7605 58.9233 39.6612 58.6451 39.4753C58.3668 39.2893 58.1499 39.025 58.0218 38.7158C57.8938 38.4066 57.8603 38.0663 57.9256 37.7381C57.9909 37.4098 58.1522 37.1083 58.3889 36.8717C58.6256 36.635 58.9271 36.4739 59.2554 36.4087C59.5837 36.3434 59.9239 36.377 60.2331 36.5052C60.5423 36.6333 60.8065 36.8503 60.9924 37.1286C61.1783 37.407 61.2774 37.7342 61.2773 38.0689C61.2767 38.5173 61.0982 38.9473 60.7809 39.2643C60.4637 39.5814 60.0337 39.7596 59.5852 39.76V39.7605Z" fill="#3282B8"/>
<path d="M57.0322 22.2252C56.3568 22.2251 55.6966 22.4253 55.1349 22.8005C54.5733 23.1756 54.1356 23.7089 53.877 24.3329C53.6185 24.9569 53.5508 25.6435 53.6825 26.3059C53.8142 26.9683 54.1394 27.5769 54.6169 28.0545C55.0945 28.5321 55.7029 28.8574 56.3654 28.9892C57.0278 29.121 57.7144 29.0534 58.3384 28.7949C58.9624 28.5365 59.4958 28.0988 59.871 27.5372C60.2462 26.9757 60.4465 26.3154 60.4465 25.64C60.4455 24.7348 60.0855 23.8669 59.4454 23.2267C58.8053 22.5866 57.9375 22.2264 57.0322 22.2252ZM57.0322 27.3317C56.6975 27.3318 56.3703 27.2326 56.0919 27.0467C55.8136 26.8608 55.5966 26.5965 55.4685 26.2873C55.3404 25.9781 55.3068 25.6378 55.3721 25.3095C55.4374 24.9812 55.5985 24.6797 55.8352 24.443C56.0719 24.2063 56.3734 24.0452 56.7017 23.9799C57.03 23.9146 57.3703 23.9482 57.6795 24.0763C57.9887 24.2044 58.253 24.4214 58.4389 24.6997C58.6248 24.9781 58.724 25.3053 58.7239 25.64C58.7234 26.0885 58.545 26.5185 58.2278 26.8356C57.9107 27.1528 57.4807 27.3311 57.0322 27.3317Z" fill="#3282B8"/>
<path d="M57.0322 45.6293C56.3568 45.6292 55.6966 45.8294 55.1349 46.2045C54.5733 46.5797 54.1356 47.113 53.877 47.7369C53.6185 48.3609 53.5508 49.0475 53.6825 49.71C53.8142 50.3724 54.1394 50.9809 54.6169 51.4585C55.0945 51.9361 55.7029 52.2614 56.3654 52.3932C57.0278 52.525 57.7144 52.4574 58.3384 52.199C58.9624 51.9405 59.4958 51.5029 59.871 50.9413C60.2462 50.3797 60.4465 49.7195 60.4465 49.0441C60.4455 48.1388 60.0855 47.2709 59.4454 46.6308C58.8053 45.9906 57.9375 45.6304 57.0322 45.6293ZM57.0322 50.7357C56.6975 50.7358 56.3703 50.6367 56.092 50.4508C55.8137 50.2649 55.5967 50.0007 55.4685 49.6915C55.3404 49.3823 55.3068 49.042 55.3721 48.7138C55.4373 48.3855 55.5984 48.0839 55.835 47.8472C56.0717 47.6105 56.3732 47.4493 56.7014 47.384C57.0297 47.3187 57.37 47.3521 57.6792 47.4802C57.9884 47.6083 58.2527 47.8251 58.4387 48.1034C58.6246 48.3817 58.7239 48.7089 58.7239 49.0436C58.7235 49.4922 58.5452 49.9223 58.228 50.2395C57.9109 50.5567 57.4808 50.7352 57.0322 50.7357Z" fill="#3282B8"/>
</g>
<defs>
<clipPath id="clip0">
<rect width="63" height="63" fill="white"/>
</clipPath>
</defs>
</svg>
