<svg width="62" height="62" viewBox="0 0 62 62" fill="none" xmlns="http://www.w3.org/2000/svg">
<g clip-path="url(#clip0)">
<path d="M9.30001 56.8334C13.8673 56.8334 17.5667 55.4489 17.5667 53.7334V57.8667C17.5667 59.5822 13.8673 60.9667 9.30001 60.9667C4.73276 60.9667 1.03335 59.5822 1.03335 57.8667V53.7334C1.03335 55.4489 4.73276 56.8334 9.30001 56.8334Z" fill="#9BC9FF"/>
<path d="M9.30001 48.5667C13.8673 48.5667 17.5667 47.1822 17.5667 45.4667V49.6C17.5667 51.3155 13.8673 52.7 9.30001 52.7C4.73276 52.7 1.03335 51.3155 1.03335 49.6V45.4667C1.03335 47.1822 4.73276 48.5667 9.30001 48.5667Z" fill="#9BC9FF"/>
<path d="M9.30001 44.4334C13.8673 44.4334 17.5667 43.0489 17.5667 41.3334V45.4667C17.5667 47.1822 13.8673 48.5667 9.30001 48.5667C4.73276 48.5667 1.03335 47.1822 1.03335 45.4667V41.3334C1.03335 43.0489 4.73276 44.4334 9.30001 44.4334Z" fill="#9BC9FF"/>
<path d="M9.30001 52.7001C13.8673 52.7001 17.5667 51.3156 17.5667 49.6001V53.7334C17.5667 55.4489 13.8673 56.8334 9.30001 56.8334C4.73276 56.8334 1.03335 55.4489 1.03335 53.7334V49.6001C1.03335 51.3156 4.73276 52.7001 9.30001 52.7001Z" fill="#9BC9FF"/>
<path d="M9.30001 32.0333C13.8673 32.0333 17.5667 30.6488 17.5667 28.9333V33.0667C17.5667 34.7822 13.8673 36.1667 9.30001 36.1667C4.73276 36.1667 1.03335 34.7822 1.03335 33.0667V28.9333C1.03335 30.6488 4.73276 32.0333 9.30001 32.0333Z" fill="#9BC9FF"/>
<path d="M9.30001 40.3001C13.8673 40.3001 17.5667 38.9156 17.5667 37.2001V41.3334C17.5667 43.0489 13.8673 44.4334 9.30001 44.4334C4.73276 44.4334 1.03335 43.0489 1.03335 41.3334V37.2001C1.03335 38.9156 4.73276 40.3001 9.30001 40.3001Z" fill="#9BC9FF"/>
<path d="M9.30001 36.1668C13.8673 36.1668 17.5667 34.7823 17.5667 33.0668V37.2001C17.5667 38.9156 13.8673 40.3001 9.30001 40.3001C4.73276 40.3001 1.03335 38.9156 1.03335 37.2001V33.0668C1.03335 34.7823 4.73276 36.1668 9.30001 36.1668Z" fill="#9BC9FF"/>
<path d="M9.30001 27.9C13.8652 27.9 17.5667 26.5125 17.5667 24.8V28.9334C17.5667 30.6489 13.8673 32.0334 9.30001 32.0334C4.73276 32.0334 1.03335 30.6489 1.03335 28.9334V24.8C1.03335 26.5125 4.73478 27.9 9.30001 27.9Z" fill="#9BC9FF"/>
<path d="M52.7 60.9667C48.1328 60.9667 44.4333 59.5822 44.4333 57.8667V53.7334C44.4333 55.4489 48.1328 56.8334 52.7 56.8334C57.2673 56.8334 60.9667 55.4489 60.9667 53.7334V57.8667C60.9667 59.5822 57.2673 60.9667 52.7 60.9667Z" fill="#9BC9FF"/>
<path d="M31 52.7001C35.5672 52.7001 39.2667 51.3156 39.2667 49.6001V53.7334C39.2667 55.4489 35.5672 56.8334 31 56.8334C26.4327 56.8334 22.7333 55.4489 22.7333 53.7334V49.6001C22.7333 51.3156 26.4327 52.7001 31 52.7001Z" fill="#9BC9FF"/>
<path d="M31 48.5667C35.5672 48.5667 39.2667 47.1822 39.2667 45.4667V49.6C39.2667 51.3155 35.5672 52.7 31 52.7C26.4327 52.7 22.7333 51.3155 22.7333 49.6V45.4667C22.7333 47.1822 26.4327 48.5667 31 48.5667Z" fill="#9BC9FF"/>
<path d="M31 40.3001C35.5652 40.3001 39.2667 38.9125 39.2667 37.2001V41.3334C39.2667 43.0489 35.5672 44.4334 31 44.4334C26.4327 44.4334 22.7333 43.0489 22.7333 41.3334V37.2001C22.7333 38.9125 26.4348 40.3001 31 40.3001Z" fill="#9BC9FF"/>
<path d="M31 44.4334C35.5672 44.4334 39.2667 43.0489 39.2667 41.3334V45.4667C39.2667 47.1822 35.5672 48.5667 31 48.5667C26.4327 48.5667 22.7333 47.1822 22.7333 45.4667V41.3334C22.7333 43.0489 26.4327 44.4334 31 44.4334Z" fill="#9BC9FF"/>
<path d="M52.7 56.8334C48.1328 56.8334 44.4333 55.4489 44.4333 53.7334V49.6001C44.4333 51.3156 48.1328 52.7001 52.7 52.7001C57.2673 52.7001 60.9667 51.3156 60.9667 49.6001V53.7334C60.9667 55.4489 57.2673 56.8334 52.7 56.8334Z" fill="#9BC9FF"/>
<path d="M52.7 52.7C48.1328 52.7 44.4333 51.3155 44.4333 49.6V45.4667C44.4333 47.1791 48.1348 48.5667 52.7 48.5667C57.2652 48.5667 60.9667 47.1791 60.9667 45.4667V49.6C60.9667 51.3155 57.2673 52.7 52.7 52.7Z" fill="#9BC9FF"/>
<path d="M31 56.8334C35.5672 56.8334 39.2667 55.4489 39.2667 53.7334V57.8667C39.2667 59.5822 35.5672 60.9667 31 60.9667C26.4327 60.9667 22.7333 59.5822 22.7333 57.8667V53.7334C22.7333 55.4489 26.4327 56.8334 31 56.8334Z" fill="#9BC9FF"/>
<path d="M52.7 41.3334C57.3222 41.3334 62 42.7532 62 45.4667V57.8667C62 60.5802 57.3222 62 52.7 62C48.0778 62 43.4 60.5802 43.4 57.8667V45.4667C43.4 42.7532 48.0778 41.3334 52.7 41.3334ZM52.7 43.4C48.0016 43.4 45.4667 44.8673 45.4667 45.4667C45.4667 46.0661 48.0016 47.5334 52.7 47.5334C57.3984 47.5334 59.9333 46.0661 59.9333 45.4667C59.9333 44.8673 57.3984 43.4 52.7 43.4ZM52.7 59.9334C57.3984 59.9334 59.9333 58.4661 59.9333 57.8667V56.4201C57.6633 57.4459 55.1895 57.9404 52.7 57.8667C50.2105 57.9404 47.7367 57.4459 45.4667 56.4201V57.8667C45.4667 58.4661 48.0016 59.9334 52.7 59.9334ZM52.7 55.8C57.3984 55.8 59.9333 54.3328 59.9333 53.7334V52.2868C57.6633 53.3126 55.1895 53.807 52.7 53.7334C50.2105 53.807 47.7367 53.3126 45.4667 52.2868V53.7334C45.4667 54.3328 48.0016 55.8 52.7 55.8ZM52.7 51.6667C57.3984 51.6667 59.9333 50.1995 59.9333 49.6V48.1535C57.6633 49.1792 55.1895 49.6737 52.7 49.6C50.2105 49.6737 47.7367 49.1792 45.4667 48.1535V49.6C45.4667 50.1995 48.0016 51.6667 52.7 51.6667Z" fill="#3282B8"/>
<path d="M31 33.0667C35.6222 33.0667 40.3 34.4865 40.3 37.2V57.8667C40.3 60.5802 35.6222 62 31 62C26.3777 62 21.7 60.5802 21.7 57.8667V37.2C21.7 34.4865 26.3777 33.0667 31 33.0667ZM31 35.1333C26.3016 35.1333 23.7667 36.6006 23.7667 37.2C23.7667 37.7994 26.3016 39.2667 31 39.2667C35.6984 39.2667 38.2333 37.7994 38.2333 37.2C38.2333 36.6006 35.6984 35.1333 31 35.1333ZM31 59.9333C35.6984 59.9333 38.2333 58.4661 38.2333 57.8667V56.4201C35.9633 57.4459 33.4895 57.9403 31 57.8667C28.5105 57.9403 26.0367 57.4459 23.7667 56.4201V57.8667C23.7667 58.4661 26.3016 59.9333 31 59.9333ZM31 55.8C35.6984 55.8 38.2333 54.3327 38.2333 53.7333V52.2868C35.9633 53.3125 33.4895 53.807 31 53.7333C28.5105 53.807 26.0367 53.3125 23.7667 52.2868V53.7333C23.7667 54.3327 26.3016 55.8 31 55.8ZM31 51.6667C35.6984 51.6667 38.2333 50.1994 38.2333 49.6V48.1534C35.9633 49.1792 33.4895 49.6737 31 49.6C28.5105 49.6737 26.0367 49.1792 23.7667 48.1534V49.6C23.7667 50.1994 26.3016 51.6667 31 51.6667ZM31 47.5333C35.6984 47.5333 38.2333 46.0661 38.2333 45.4667V44.0201C35.9633 45.0459 33.4895 45.5403 31 45.4667C28.5105 45.5403 26.0367 45.0459 23.7667 44.0201V45.4667C23.7667 46.0661 26.3016 47.5333 31 47.5333ZM31 43.4C35.6984 43.4 38.2333 41.9327 38.2333 41.3333V39.8868C35.9633 40.9125 33.4895 41.407 31 41.3333C28.5105 41.407 26.0367 40.9125 23.7667 39.8868V41.3333C23.7667 41.9327 26.3016 43.4 31 43.4Z" fill="#3282B8"/>
<path d="M9.3 20.6666C13.9223 20.6666 18.6 22.0865 18.6 24.8V57.8666C18.6 60.5801 13.9223 62 9.3 62C4.67775 62 0 60.5801 0 57.8666V24.8C0 22.0865 4.67775 20.6666 9.3 20.6666ZM9.3 22.7333C4.60156 22.7333 2.06667 24.2005 2.06667 24.8C2.06667 25.3994 4.60156 26.8666 9.3 26.8666C13.9984 26.8666 16.5333 25.3994 16.5333 24.8C16.5333 24.2005 13.9984 22.7333 9.3 22.7333ZM9.3 59.9333C13.9984 59.9333 16.5333 58.466 16.5333 57.8666V56.4201C14.2633 57.4458 11.7895 57.9403 9.3 57.8666C6.81052 57.9403 4.33667 57.4458 2.06667 56.4201V57.8666C2.06667 58.466 4.60156 59.9333 9.3 59.9333ZM9.3 55.8C13.9984 55.8 16.5333 54.3327 16.5333 53.7333V52.2867C14.2633 53.3125 11.7895 53.807 9.3 53.7333C6.81052 53.807 4.33667 53.3125 2.06667 52.2867V53.7333C2.06667 54.3327 4.60156 55.8 9.3 55.8ZM9.3 51.6666C13.9984 51.6666 16.5333 50.1994 16.5333 49.6V48.1534C14.2633 49.1792 11.7895 49.6736 9.3 49.6C6.81052 49.6736 4.33667 49.1792 2.06667 48.1534V49.6C2.06667 50.1994 4.60156 51.6666 9.3 51.6666ZM9.3 47.5333C13.9984 47.5333 16.5333 46.066 16.5333 45.4666V44.0201C14.2633 45.0458 11.7895 45.5403 9.3 45.4666C6.81052 45.5403 4.33667 45.0458 2.06667 44.0201V45.4666C2.06667 46.066 4.60156 47.5333 9.3 47.5333ZM9.3 43.4C13.9984 43.4 16.5333 41.9327 16.5333 41.3333V39.8867C14.2633 40.9125 11.7895 41.407 9.3 41.3333C6.81052 41.407 4.33667 40.9125 2.06667 39.8867V41.3333C2.06667 41.9327 4.60156 43.4 9.3 43.4ZM9.3 39.2666C13.9984 39.2666 16.5333 37.7994 16.5333 37.2V35.7534C14.2633 36.7792 11.7895 37.2736 9.3 37.2C6.81052 37.2736 4.33667 36.7792 2.06667 35.7534V37.2C2.06667 37.7994 4.60156 39.2666 9.3 39.2666ZM9.3 35.1333C13.9984 35.1333 16.5333 33.666 16.5333 33.0666V31.6201C14.2633 32.6458 11.7895 33.1403 9.3 33.0666C6.81052 33.1403 4.33667 32.6458 2.06667 31.6201V33.0666C2.06667 33.666 4.60156 35.1333 9.3 35.1333ZM9.3 31C13.9984 31 16.5333 29.5327 16.5333 28.9333V27.4867C14.2633 28.5125 11.7895 29.007 9.3 28.9333C6.81052 29.007 4.33667 28.5125 2.06667 27.4867V28.9333C2.06667 29.5327 4.60156 31 9.3 31Z" fill="#3282B8"/>
<path d="M11.3667 0V2.06667H3.52787L23.1612 21.7H44.8219L61.6478 36.422L60.2855 37.978L44.0448 23.7667H22.3055L2.06668 3.52786V11.3667H1.14441e-05V0H11.3667Z" fill="#3282B8"/>
</g>
<defs>
<clipPath id="clip0">
<rect width="62" height="62" fill="white" transform="matrix(-1 0 0 1 62 0)"/>
</clipPath>
</defs>
</svg>
