<svg width="63" height="63" viewBox="0 0 63 63" fill="none" xmlns="http://www.w3.org/2000/svg">
<path d="M12.6878 12.7248C12.6878 12.7253 12.681 12.732 12.6806 12.732C12.4412 12.9719 12.1283 13.0911 11.8154 13.0911C11.5006 13.0911 11.1853 12.97 10.944 12.7296C10.4638 12.2495 10.4662 11.4674 10.9464 10.9863L10.9723 10.9603C11.4563 10.4835 12.2355 10.4883 12.7128 10.9728C13.1896 11.4564 13.1843 12.2355 12.7003 12.7128L12.6878 12.7248Z" fill="#3282B8"/>
<path d="M1.23047 30.2695H2.48882C2.72337 24.7819 4.50467 19.4385 7.65294 14.9209C8.04131 14.3633 8.80843 14.2263 9.36598 14.6147C9.92354 15.0035 10.061 15.7702 9.67216 16.3277C6.71807 20.5671 5.15595 25.4058 4.93341 30.2695H6.15234C6.83199 30.2695 7.38281 30.8204 7.38281 31.5C7.38281 32.1796 6.83199 32.7305 6.15234 32.7305H4.93341C5.2343 39.1539 7.86491 45.4519 12.7065 50.2935C17.4352 55.0221 23.6322 57.7489 30.2695 58.0493V56.8477C30.2695 56.168 30.8204 55.6172 31.5 55.6172C32.1796 55.6172 32.7305 56.168 32.7305 56.8477V58.0493C39.3678 57.7489 45.5648 55.0221 50.2935 50.2935C55.0221 45.5648 57.7489 39.3678 58.0493 32.7305H56.8477C56.168 32.7305 55.6172 32.1796 55.6172 31.5C55.6172 30.8204 56.168 30.2695 56.8477 30.2695H58.0493C57.7489 23.6322 55.0221 17.4352 50.2935 12.7065C45.4519 7.86491 39.1539 5.2343 32.7305 4.93341V6.15234C32.7305 6.83199 32.1796 7.38281 31.5 7.38281C30.8204 7.38281 30.2695 6.83199 30.2695 6.15234V4.93341C25.4053 5.15643 20.5666 6.71807 16.3273 9.67264C15.7697 10.061 15.0026 9.92402 14.6142 9.36646C14.2254 8.80939 14.3624 8.04227 14.9199 7.65342C19.438 4.50467 24.7819 2.72337 30.2695 2.48882V1.23047C30.2695 0.550827 30.8204 0 31.5 0C32.1796 0 32.7305 0.550827 32.7305 1.23047V2.48785C33.1318 2.50468 33.5336 2.52919 33.9355 2.56284C40.7578 3.13385 47.1856 6.11822 52.0339 10.9661C57.2274 16.16 60.2098 22.9747 60.5117 30.2695H61.7695C62.4492 30.2695 63 30.8204 63 31.5C63 32.1796 62.4492 32.7305 61.7695 32.7305H60.5117C60.2098 40.0253 57.2274 46.84 52.0339 52.0339C46.84 57.2274 40.0253 60.2098 32.7305 60.5117V61.7695C32.7305 62.4492 32.1796 63 31.5 63C30.8204 63 30.2695 62.4492 30.2695 61.7695V60.5117C22.9747 60.2098 16.16 57.2274 10.9661 52.0339C6.11822 47.1856 3.13385 40.7578 2.56284 33.9355C2.52919 33.5336 2.50468 33.1318 2.48785 32.7305H1.23047C0.550827 32.7305 0 32.1796 0 31.5C0 30.8204 0.550827 30.2695 1.23047 30.2695Z" fill="#3282B8"/>
<path d="M15.4111 26.408V25.8788C15.4111 23.0126 17.7428 20.681 20.6089 20.681C23.4755 20.681 25.8072 23.0126 25.8072 25.8788V26.408C25.8072 27.7836 25.2693 29.0352 24.3936 29.9657C24.9069 30.1989 25.3996 30.48 25.8648 30.8059C26.3926 30.4426 26.9569 30.1287 27.551 29.8706C26.5647 28.8727 25.9547 27.5029 25.9547 25.9922V25.3688C25.9547 22.3243 28.4315 19.848 31.4755 19.848H31.524C34.5685 19.848 37.0448 22.3243 37.0448 25.3688V25.9922C37.0448 27.5029 36.4349 28.8727 35.4486 29.8706C36.0431 30.1287 36.6074 30.4426 37.1352 30.8059C37.6 30.48 38.0926 30.1989 38.606 29.9657C37.7307 29.0352 37.1924 27.7836 37.1924 26.408V25.8788C37.1924 23.0126 39.5245 20.681 42.3906 20.681C45.2567 20.681 47.5889 23.0126 47.5889 25.8788V26.408C47.5889 27.7836 47.0505 29.0352 46.1748 29.9662C49.3456 31.4096 51.5566 34.606 51.5566 38.3108V39.3687C51.5566 40.0484 51.0058 40.5992 50.3262 40.5992H41.4591V41.9215C41.4591 42.6011 40.9083 43.1519 40.2286 43.1519H22.7714C22.0917 43.1519 21.5409 42.6011 21.5409 41.9215V40.5992H12.6738C11.9942 40.5992 11.4434 40.0484 11.4434 39.3687V38.3108C11.4434 34.606 13.6544 31.4096 16.8247 29.9662C15.949 29.0352 15.4111 27.7836 15.4111 26.408ZM23.3462 26.408V25.8788C23.3462 24.3695 22.1186 23.1419 20.6089 23.1419C19.0997 23.1419 17.8721 24.3695 17.8721 25.8788V26.408C17.8721 27.9172 19.0997 29.1453 20.6089 29.1453C22.1186 29.1453 23.3462 27.9172 23.3462 26.408ZM31.524 29.0525C33.2116 29.0525 34.5843 27.6798 34.5843 25.9927V25.3688C34.5843 23.6817 33.2116 22.309 31.524 22.309H31.476C29.7884 22.309 28.4157 23.6817 28.4157 25.3688V25.9927C28.4157 27.6798 29.7884 29.0525 31.476 29.0525H31.524ZM45.1279 26.408V25.8788C45.1279 24.3695 43.9003 23.1419 42.3911 23.1419C40.8814 23.1419 39.6538 24.3695 39.6538 25.8788V26.408C39.6538 27.9172 40.8814 29.1453 42.3911 29.1453C43.9003 29.1453 45.1279 27.9172 45.1279 26.408ZM42.3911 31.6062C41.2034 31.6062 40.0479 31.9225 39.0342 32.5098C40.3642 34.0489 41.2318 35.997 41.4187 38.1383H49.0938C49.002 34.5204 46.0306 31.6062 42.3911 31.6062ZM24.0018 40.691H38.9982V39.0121C38.9982 34.877 35.6346 31.5134 31.5 31.5134C27.3654 31.5134 24.0018 34.877 24.0018 39.0121V40.691ZM13.9067 38.1383H21.5813C21.7687 35.997 22.6358 34.0489 23.9658 32.5098C22.9521 31.9225 21.7966 31.6062 20.6094 31.6062C16.9694 31.6062 13.998 34.5204 13.9067 38.1383Z" fill="#3282B8"/>
</svg>
