<svg width="63" height="62" viewBox="0 0 63 62" fill="none" xmlns="http://www.w3.org/2000/svg">
<g clip-path="url(#clip0)">
<path d="M0.810875 43.4976L2.46377 41.8708C2.82417 41.5162 3.40852 41.5161 3.7688 41.8708C4.12933 42.2255 4.12933 42.8006 3.76893 43.1553L2.11591 44.782C1.94168 44.9536 1.8457 45.1816 1.8457 45.4242C1.8457 45.6667 1.94168 45.8948 2.11604 46.0663L4.3737 48.2883C4.73362 48.6424 5.31907 48.6424 5.67886 48.2883L15.3297 38.7908L11.7666 35.2844L6.81421 40.1583C6.45369 40.513 5.86946 40.513 5.50906 40.1583C5.14865 39.8036 5.14865 39.2285 5.50906 38.874L10.5868 33.8769C10.9021 33.5667 11.3212 33.3959 11.7668 33.3959C12.1493 33.3959 12.5117 33.5225 12.806 33.7541L15.8002 30.8074C14.1882 28.4431 13.2465 25.6007 13.2465 22.5457C13.2465 14.3484 20.023 7.67939 28.3526 7.67939C30.2462 7.67939 32.0585 8.02572 33.7301 8.6548V7.67322C33.7301 6.97208 34.3097 6.40173 35.0221 6.40173H58.278C58.9904 6.40173 59.5699 6.97208 59.5699 7.67322V15.9623C59.5699 16.6635 58.9904 17.2338 58.278 17.2338H42.4597C43.1038 18.8843 43.4586 20.6747 43.4586 22.5457C43.4586 29.4977 38.5842 35.3496 32.0226 36.9675V53.7821H34.082V39.8501C34.082 39.1065 34.6968 38.5015 35.4525 38.5015H39.8346C40.5903 38.5015 41.2051 39.1065 41.2051 39.8501V53.7818H43.2645V46.9844C43.2645 46.4828 43.6776 46.0762 44.1874 46.0762C44.6971 46.0762 45.1102 46.4828 45.1102 46.9844V53.7818H48.5417V32.5161H45.1102V42.7461C45.1102 43.2476 44.6971 43.6543 44.1874 43.6543C43.6776 43.6543 43.2645 43.2476 43.2645 42.7461V32.0483C43.2645 31.3047 43.8793 30.6997 44.6349 30.6997H49.017C49.7727 30.6997 50.3874 31.3047 50.3874 32.0483V53.7818H52.4468V23.231C52.4468 22.4873 53.0615 21.8824 53.8173 21.8824H58.1993C58.9551 21.8824 59.5698 22.4873 59.5698 23.231V53.782H62.0771C62.5869 53.782 63 54.1886 63 54.6902C63 55.1917 62.5869 55.5984 62.0771 55.5984H22.3922C21.8824 55.5984 21.4693 55.1917 21.4693 54.6902C21.4693 54.1886 21.8824 53.782 22.3922 53.782H24.8995V37.0189C23.1094 36.6053 21.4407 35.8784 19.9575 34.8988L16.9512 37.8574C17.401 38.497 17.3382 39.3829 16.7598 39.9522L6.98402 49.5729C6.44433 50.104 5.73546 50.3695 5.02646 50.3695C4.31747 50.3695 3.60847 50.104 3.06866 49.5729L0.811001 47.3509C0.288052 46.8363 0 46.1521 0 45.4243C0 44.6963 0.288052 44.0121 0.810875 43.4976ZM54.2925 53.7818H57.7241V23.6988H54.2925V53.7818ZM35.9276 53.7818H39.3592V40.3179H35.9276V53.7818ZM57.7241 15.4173V8.21814H35.5757V15.4174H57.7241V15.4173ZM26.7452 53.7818H30.1768V37.3032C29.5785 37.3744 28.9699 37.4119 28.3525 37.4119C27.8095 37.4119 27.2736 37.3819 26.7452 37.3266V53.7818ZM28.3525 35.5955C35.6643 35.5955 41.6129 29.7413 41.6129 22.5456C41.6129 20.6548 41.2008 18.8574 40.4625 17.2337H38.3397C39.2115 18.8147 39.7086 20.6238 39.7086 22.5456C39.7086 28.708 34.6143 33.7216 28.3525 33.7216C22.9684 33.7216 18.2871 29.9535 17.2213 24.762C17.1204 24.2703 17.4435 23.7912 17.9431 23.6919C18.4428 23.5927 18.9295 23.9107 19.0304 24.4022C19.923 28.7497 23.8434 31.9052 28.3525 31.9052C33.5965 31.9052 37.8629 27.7065 37.8629 22.5456C37.8629 20.5736 37.2378 18.7438 36.1752 17.2337H35.022C34.3095 17.2337 33.73 16.6633 33.73 15.9622V14.8337C32.1993 13.7961 30.3475 13.186 28.3525 13.186C23.9206 13.186 20.0146 16.2781 19.0648 20.5383C18.9554 21.0283 18.4632 21.3382 17.9655 21.2307C17.4676 21.1232 17.1526 20.639 17.2618 20.149C17.8078 17.7004 19.2031 15.4737 21.1906 13.8793C23.2081 12.2609 25.7515 11.3696 28.3525 11.3696C30.2972 11.3696 32.1282 11.8548 33.73 12.7064V10.6191C32.0853 9.89795 30.266 9.49568 28.3525 9.49568C21.0406 9.49568 15.0921 15.3498 15.0921 22.5456C15.0921 29.7413 21.0406 35.5955 28.3525 35.5955ZM18.4773 33.7866C17.9253 33.3163 17.4082 32.8073 16.9303 32.2641L14.1191 35.0306L15.6662 36.5531L18.4773 33.7866Z" fill="#3282B8"/>
<path d="M28.3525 15.4609C32.322 15.4609 35.5515 18.6392 35.5515 22.5456C35.5515 26.4521 32.322 29.6304 28.3525 29.6304C24.383 29.6304 21.1535 26.4521 21.1535 22.5456C21.1535 18.6392 24.383 15.4609 28.3525 15.4609ZM28.3525 27.814C31.3042 27.814 33.7057 25.4506 33.7057 22.5456C33.7057 21.4218 33.3451 20.3798 32.7334 19.5235L29.0046 23.1883C28.8316 23.3583 28.597 23.4539 28.3525 23.4539H23.0805C23.5192 25.9273 25.7155 27.814 28.3525 27.814ZM27.9705 21.6374L31.429 18.2383C30.5578 17.634 29.4969 17.2775 28.3525 17.2775C25.7155 17.2775 23.5192 19.1641 23.0805 21.6376H27.9705V21.6374Z" fill="#0F4C75"/>
<path d="M51.5195 10.9095H54.5864C55.0962 10.9095 55.5093 11.3162 55.5093 11.8177C55.5093 12.3193 55.0962 12.726 54.5864 12.726H51.5195C51.0097 12.726 50.5966 12.3193 50.5966 11.8177C50.5966 11.3162 51.0098 10.9095 51.5195 10.9095Z" fill="#9BC9FF"/>
<path d="M38.7134 10.9095H48.6802C49.19 10.9095 49.603 11.3162 49.603 11.8177C49.603 12.3193 49.19 12.726 48.6802 12.726H38.7134C38.2036 12.726 37.7905 12.3193 37.7905 11.8177C37.7905 11.3162 38.2036 10.9095 38.7134 10.9095Z" fill="#3282B8"/>
</g>
<defs>
<clipPath id="clip0">
<rect width="63" height="62" fill="white" transform="matrix(-1 0 0 1 63 0)"/>
</clipPath>
</defs>
</svg>
